<svg xmlns="http://www.w3.org/2000/svg" xmlns:xlink="http://www.w3.org/1999/xlink" width="16" height="16" viewBox="0 0 16 16"><path fill="#b22234" d="M-4 0h30.4v16H-4z"/><path d="M-4 1.846h30.4m0 2.462H-4m0 2.461h30.4m0 2.462H-4m0 2.461h30.4m0 2.462H-4" stroke="#fff" stroke-width="1.2300000000000002"/><path fill="#3c3b6e" d="M-4 0H8.16v8.615H-4z"/><g fill="#fff" transform="matrix(.0041 0 0 .0041 -4 0)"><g id="d"><g id="c"><g id="e"><g id="b"><path d="M247 90l70.534 217.082-184.66-134.164h228.253L176.466 307.082z" id="a"/><use y="420" xlink:href="#a" width="100%" height="100%"/><use y="840" xlink:href="#a" width="100%" height="100%"/><use y="1260" xlink:href="#a" width="100%" height="100%"/></g><use y="1680" xlink:href="#a" width="100%" height="100%"/></g><use y="210" x="247" xlink:href="#b" width="100%" height="100%"/></g><use x="494" xlink:href="#c" width="100%" height="100%"/></g><use x="988" xlink:href="#d" width="100%" height="100%"/><use x="1976" xlink:href="#c" width="100%" height="100%"/><use x="2470" xlink:href="#e" width="100%" height="100%"/></g></svg>