<?xml version="1.0" ?><svg height="46px" version="1.1" viewBox="0 0 36 46" width="36px" xmlns="http://www.w3.org/2000/svg" xmlns:xlink="http://www.w3.org/1999/xlink"><title/><desc/><defs/><g fill="none" fill-rule="evenodd" id="Icons" stroke="none" stroke-width="1"><g fill="#0A0A08" id="Color-" transform="translate(-206.000000, -953.000000)"><path d="M241.373737,991.23428 L241.373829,991.23428 C241.047331,990.910624 240.770066,990.71954 240.526117,990.649988 C240.278745,990.579332 240.05784,990.631956 239.887187,990.802064 L239.726621,990.961408 C238.044986,992.633232 236.086827,993.945796 233.906467,994.862576 C231.650128,995.81128 229.252565,996.292348 226.78041,996.292348 C224.308164,996.292348 221.910693,995.81128 219.654446,994.862576 C217.474272,993.945888 215.516205,992.633416 213.83457,990.9615 C212.082508,989.219848 210.762261,987.273404 209.91057,985.176172 C209.080071,983.131288 208.808822,981.593232 208.719701,981.087876 C208.711372,981.040496 208.704801,981.003052 208.699619,980.976004 C208.585326,980.380856 208.034313,980.339272 207.242405,980.4597 C206.91313,980.509748 205.910961,980.662192 206.006374,981.378964 L206.008688,981.39534 C206.274015,983.05456 206.742662,984.681488 207.40186,986.230768 C208.461315,988.72084 209.977572,990.956624 211.908616,992.876112 C213.83966,994.795876 216.088781,996.303204 218.593511,997.356236 C221.186621,998.446988 223.94113,999 226.78041,999 C229.61821,999 232.372811,998.446712 234.967403,997.355408 C237.4713,996.302744 239.720421,994.79514 241.65239,992.874456 C241.656832,992.87004 241.762333,992.765988 241.820081,992.703428 C242.032657,992.473336 242.217655,992.070744 241.373737,991.23428 L241.373737,991.23428 Z M226.75422,957.928532 C224.041171,957.928532 221.155156,958.472988 219.034765,959.3848 C218.808122,959.473028 218.672637,959.653992 218.642837,959.90828 C218.614981,960.148124 218.680133,960.464604 218.842272,960.876396 C218.973778,961.210448 219.323043,962.097788 219.999269,961.841384 C222.169356,961.018444 224.568308,960.565252 226.75422,960.565252 C229.231187,960.565252 231.633377,961.04724 233.894251,961.997784 C235.690642,962.753288 237.385696,963.844592 239.228544,965.432052 C239.362919,965.54788 239.505531,965.606576 239.6524,965.606576 C240.01166,965.606576 240.356297,965.255688 240.651053,964.92688 C241.143115,964.3781 241.481089,963.921964 240.996246,963.46546 C239.23641,961.808172 237.307958,960.570128 234.927331,959.569352 C232.338292,958.480624 229.58841,957.928532 226.75422,957.928532 L226.75422,957.928532 Z M223.055567,980.733032 C223.058806,981.037828 223.339403,981.305088 223.507002,981.4648 L223.55966,981.515308 C223.847105,981.796368 224.120945,981.938876 224.373408,981.938876 C224.582467,981.938876 224.71129,981.84062 224.756914,981.798392 C224.883516,981.68146 226.315835,980.238716 226.452524,980.101084 L228.04985,981.683852 C228.197737,981.849452 228.358488,981.932436 228.545799,981.937588 C228.800853,981.937588 229.078858,981.7868 229.371948,981.489456 C230.061223,980.789796 229.716308,980.412504 229.549542,980.23016 L227.931115,978.620712 L229.61895,976.930948 C229.989038,976.532772 229.662261,976.109664 229.336225,975.785548 C228.862858,975.314876 228.406148,975.193436 228.113336,975.461616 L226.435125,977.132888 L224.737943,975.44524 C224.647989,975.359588 224.534529,975.314324 224.409871,975.314324 C224.183691,975.314324 223.916143,975.466308 223.614446,975.766228 C223.092493,976.285016 222.980606,976.643632 223.252225,976.929752 L224.949871,978.612248 L223.26222,980.292904 C223.123403,980.43072 223.053901,980.578748 223.055567,980.733032 L223.055567,980.733032 Z M212.293326,983.22476 C212.303506,983.252636 212.543197,983.911632 212.682107,984.238232 C213.444585,986.030484 214.536524,987.640392 215.927567,989.023336 C217.317685,990.405084 218.937315,991.4905 220.741665,992.249132 C222.6095,993.034628 224.593202,993.432896 226.637706,993.432896 C228.68184,993.432896 230.665542,993.034536 232.533747,992.248948 C234.337356,991.490592 235.957079,990.405084 237.347752,989.0226 C238.738333,987.640392 239.830179,986.030208 240.593212,984.237036 C241.383362,982.379924 241.783989,980.407812 241.783989,978.375624 C241.783989,976.343344 241.383362,974.371232 240.593212,972.514304 C239.830364,970.721224 238.738426,969.11104 237.347752,967.728556 C235.957542,966.34644 234.337819,965.260932 232.533747,964.502208 C230.665727,963.716712 228.682025,963.318444 226.637706,963.318444 C224.56914,963.318444 222.502241,963.727752 220.660318,964.502208 C219.18802,965.121368 216.695968,966.71536 215.237274,968.210912 L215.228667,968.219652 L215.228667,955.827804 L236.167896,955.82762 C236.929912,955.81934 236.929912,954.761524 236.929912,954.413856 C236.929912,954.066372 236.929912,953.008832 236.165583,953.000184 L213.524729,953 C212.90838,953 212.526817,953.50968 212.526817,953.981916 L212.526817,971.424104 C212.526817,971.986776 213.231917,972.39314 213.887043,972.532428 C215.166477,972.804104 215.462066,972.397556 215.775423,971.967364 L215.816976,971.910324 C216.295341,971.203856 217.79022,969.708212 217.805212,969.693308 C220.138087,967.374172 223.257408,966.097028 226.58838,966.097028 C229.903434,966.097028 233.013871,967.374172 235.346745,969.693308 C237.687485,972.020448 238.976637,975.103828 238.976637,978.375624 C238.976637,981.659288 237.694148,984.742576 235.365254,987.057756 C233.066158,989.343312 229.854292,990.654128 226.553398,990.654128 C224.317603,990.654128 222.159454,990.061924 220.310775,988.94118 L220.318642,978.335604 C220.318642,976.921472 220.936009,975.384244 221.969922,974.223388 C223.152092,972.896288 224.781254,972.16544 226.55747,972.16544 C228.277603,972.16544 229.884092,972.814592 231.081161,973.993388 C232.269624,975.163812 232.924102,976.72312 232.924102,978.38418 C232.924102,981.928296 230.120729,984.704488 226.542015,984.704488 C225.852092,984.704488 224.597922,984.40144 224.546374,984.388928 C223.823783,984.175028 223.516349,985.172308 223.415197,985.501024 C223.02623,986.765196 223.610745,987.015804 223.731886,987.053248 C224.883516,987.408552 225.638683,987.475896 226.629284,987.475896 C231.681408,987.475896 235.791516,983.387876 235.791516,978.363204 C235.791516,973.378828 231.683907,969.323652 226.63493,969.323652 C224.162405,969.323652 221.839619,970.263248 220.09459,971.969296 C218.43276,973.594108 217.479547,975.760524 217.479547,977.912588 L217.478621,977.96604 C217.47057,978.234404 217.465295,984.592248 217.463721,986.678716 L217.454282,986.66832 C216.504678,985.623016 215.566087,984.022952 214.943814,982.388204 C214.699865,981.747516 214.148853,981.860952 213.396925,982.091136 C213.068575,982.191692 212.069274,982.497684 212.290272,983.215836 L212.293326,983.22476 L212.293326,983.22476 Z" id="500px"/></g></g></svg>