<?xml version="1.0" encoding="UTF-8"?><svg enable-background="new 0 0 26.649 26.649" version="1.1" viewBox="0 0 26.649 26.649" xml:space="preserve" xmlns="http://www.w3.org/2000/svg"><path d="m26.157 1.238c-0.434-0.567-1.107-0.892-1.847-0.892-0.478 0-0.973 0.133-1.472 0.395l-21.245 11.139c-1.51 0.793-1.615 1.987-1.59 2.463 0.024 0.479 0.255 1.654 1.839 2.283l2.715 1.074c0.515 0.204 1.091 0.309 1.711 0.309 0.098 0 0.192-0.013 0.289-0.018-0.037 0.048-0.082 0.085-0.116 0.135-0.506 0.757-0.531 1.783-0.073 2.888 7e-3 0.019 0.014 0.035 0.021 0.051 0.803 1.779 1.696 3.787 1.804 4.066 0.266 0.694 0.944 1.172 1.688 1.172 1.146 0 1.486-0.552 3.361-3.604 0.146-0.224 0.471-0.744 0.526-1.406 0.219 0.089 0.425 0.171 0.601 0.242l3.008 1.226c0.603 0.246 1.131 0.463 1.409 0.578 0.086 0.053 0.177 0.098 0.272 0.137 0.212 0.084 0.438 0.127 0.665 0.127 1.368 0 1.696-1.185 1.872-1.82 0.087-0.314 0.207-0.749 0.336-1.229l4.588-16.858c0.346-1.273-0.079-2.086-0.362-2.458zm-14.43 20.501s-1.702 2.771-1.847 2.771c-4e-3 0-6e-3 -2e-3 -8e-3 -6e-3 -0.167-0.449-1.849-4.176-1.849-4.176-0.31-0.747-0.254-1.387 0.279-1.387 0.117 0 0.257 0.031 0.421 0.099l1.306 0.679c0.218 0.149 0.456 0.278 0.718 0.381l0.066 0.025 0.123 0.062c1.009 0.534 1.33 0.727 0.791 1.552zm13.062-18.515-4.586 16.858c-0.259 0.95-0.475 1.727-0.479 1.727-4e-3 -2e-3 -9e-3 -0.02-9e-3 -0.023 0-6e-3 -0.748-0.312-1.662-0.686l-3.01-1.226c-0.914-0.37-2.413-0.969-3.332-1.323l-0.152-0.061-0.562-0.292c-0.557-0.427-0.606-1.131-0.046-1.728l9.312-9.971c0.374-0.399 0.515-0.605 0.434-0.605-0.064 0-0.271 0.133-0.617 0.404l-11.782 9.294c-0.514 0.401-1.295 0.625-2.029 0.625-0.376 0-0.741-0.06-1.052-0.183l-2.713-1.073c-0.917-0.363-0.952-1.033-0.079-1.493l21.247-11.141c0.245-0.128 0.46-0.188 0.638-0.188 0.457 0 0.665 0.4 0.479 1.085z" fill="#010002"/></svg>
